<?xml version="1.0" encoding="utf-8"?>
<svg viewBox="-379.204 -1389.428 552.09 389.361" width="552.09" height="389.361" xmlns="http://www.w3.org/2000/svg">
  <g id="Pen" opacity="1.000" transform="matrix(0, 0.158807, -0.162492, 0, -129.685776, -1417.886719)">
    <path id="STROKE_824cf876-ab6c-4d51-ba6f-c4a46859fb9a" opacity="1.000" fill="none" stroke="#00bacb" stroke-width="51.740" stroke-opacity="1.000" stroke-linecap="round" stroke-linejoin="round" d="M 1218.464 1201.399 Q 1218.911 1200.414 1219.067 1199.952 Q 1219.640 1198.868 1220.373 1197.611 Q 1221.106 1196.353 1221.752 1195.529 Q 1222.398 1194.705 1222.645 1194.403 Q 1222.892 1194.102 1223.539 1193.538 Q 1224.186 1192.974 1224.723 1192.529 Q 1225.260 1192.084 1225.433 1192.044 Q 1225.607 1192.004 1226.306 1191.311 L 1227.596 1189.800 "/>
    <path id="STROKE_7dd79a99-8ccc-404c-a231-6d968a2e6cff" opacity="1.000" fill="none" stroke="#bc4655" stroke-width="49.983" stroke-opacity="1.000" stroke-linecap="round" stroke-linejoin="round" d="M 1294.548 1215.055 Q 1295.315 1213.161 1295.808 1212.073 Q 1296.302 1210.984 1296.380 1210.739 Q 1296.458 1210.494 1297.466 1208.753 Q 1298.474 1207.012 1299.322 1205.502 Q 1300.170 1203.993 1300.924 1202.696 Q 1301.679 1201.400 1302.008 1201.014 Q 1302.337 1200.628 1302.816 1199.428 Q 1303.296 1198.228 1304.050 1196.628 "/>
    <path id="STROKE_2ad3e919-120d-41f1-b527-273dde6ff097" opacity="1.000" fill="none" stroke="#bc4655" stroke-width="41.806" stroke-opacity="1.000" stroke-linecap="round" stroke-linejoin="round" d="M 1299.778 1095.919 Q 1299.975 1095.764 1300.052 1095.715 Q 1300.129 1095.667 1300.263 1095.609 Q 1300.397 1095.551 1300.565 1095.504 Q 1300.734 1095.456 1300.755 1095.438 Q 1300.777 1095.421 1301.430 1095.302 Q 1302.083 1095.182 1302.934 1095.255 Q 1303.251 1095.439 1303.352 1096.076 Q 1303.452 1096.713 1303.291 1097.673 Q 1303.308 1097.714 1303.568 1098.040 Q 1303.827 1098.365 1304.098 1098.833 Q 1304.368 1099.300 1304.506 1099.590 Q 1304.644 1099.880 1304.688 1099.985 Q 1304.732 1100.089 1304.841 1100.448 Q 1304.951 1100.808 1304.950 1101.159 Q 1304.949 1101.509 1304.743 1102.615 Q 1304.537 1103.720 1304.185 1105.165 Q 1304.367 1106.264 1304.405 1106.738 Q 1304.443 1107.213 1304.434 1107.573 Q 1304.426 1107.933 1304.405 1108.141 Q 1304.383 1108.349 1304.330 1108.583 Q 1304.276 1108.816 1304.044 1109.246 Q 1303.812 1109.676 1302.196 1111.340 Q 1302.082 1111.472 1301.904 1111.614 Q 1301.727 1111.756 1301.275 1112.220 "/>
    <path id="STROKE_b66f7c67-5ac9-4bad-85b8-94a53eb4242f" opacity="1.000" fill="none" stroke="#bc4655" stroke-width="51.169" stroke-opacity="1.000" stroke-linecap="round" stroke-linejoin="round" d="M 1362.711 1095.556 Q 1362.930 1095.510 1363.741 1095.576 Q 1363.946 1095.524 1365.110 1095.670 Q 1366.274 1095.815 1366.911 1095.976 Q 1367.549 1096.137 1367.871 1096.257 Q 1368.193 1096.376 1368.614 1096.617 Q 1369.034 1096.858 1369.411 1097.254 Q 1369.787 1097.651 1370.072 1098.053 Q 1370.358 1098.457 1370.507 1098.714 Q 1370.656 1098.970 1370.734 1099.136 Q 1370.812 1099.301 1370.906 1099.508 Q 1371.000 1099.714 1371.067 1099.830 Q 1371.133 1099.946 1371.242 1100.037 Q 1371.350 1100.129 1371.468 1100.217 Q 1371.586 1100.304 1371.867 1100.616 Q 1372.148 1100.928 1372.327 1101.297 Q 1372.506 1101.667 1372.597 1102.103 Q 1372.688 1102.539 1372.696 1102.940 Q 1372.705 1103.340 1372.637 1103.723 Q 1372.569 1104.106 1372.419 1104.507 Q 1372.268 1104.908 1372.085 1105.257 Q 1371.901 1105.605 1371.014 1106.922 Q 1370.126 1108.239 1368.799 1110.007 "/>
    <path id="STROKE_76983e89-c3a1-43e9-bb2a-97165a49abcf" opacity="1.000" fill="none" stroke="#0086b6" stroke-width="55.532" stroke-opacity="1.000" stroke-linecap="round" stroke-linejoin="round" d="M 1426.552 1202.056 Q 1426.969 1202.146 1427.997 1202.240 Q 1429.025 1202.335 1429.952 1202.502 Q 1430.879 1202.670 1431.725 1202.954 Q 1432.571 1203.239 1433.136 1203.538 Q 1433.702 1203.837 1434.128 1204.191 Q 1434.554 1204.545 1434.963 1205.134 Q 1435.372 1205.723 1435.675 1206.233 Q 1435.977 1206.742 1436.039 1207.145 Q 1436.101 1207.548 1436.413 1208.496 Q 1436.724 1209.443 1436.702 1209.784 Q 1436.680 1210.125 1436.697 1210.304 Q 1436.714 1210.484 1437.349 1212.566 "/>
    <path id="STROKE_7e5cd01a-5aea-47cd-8823-f105cd4ba520" opacity="1.000" fill="none" stroke="#0086b6" stroke-width="59.011" stroke-opacity="1.000" stroke-linecap="round" stroke-linejoin="round" d="M 1484.254 1127.051 Q 1485.159 1125.549 1485.703 1124.891 Q 1486.248 1124.233 1486.554 1123.881 Q 1486.860 1123.529 1487.420 1122.950 Q 1487.979 1122.372 1488.618 1121.817 Q 1489.257 1121.262 1489.734 1120.909 Q 1490.210 1120.556 1490.474 1120.418 Q 1490.737 1120.281 1490.922 1120.208 Q 1491.108 1120.135 1491.172 1120.110 Q 1491.236 1120.086 1491.391 1119.937 Q 1491.545 1119.787 1491.671 1119.618 Q 1491.797 1119.449 1491.808 1119.388 Q 1491.818 1119.326 1491.892 1119.215 Q 1491.967 1119.105 1492.035 1118.988 Q 1492.103 1118.871 1492.367 1118.754 Q 1492.632 1118.636 1493.134 1118.667 "/>
    <path id="STROKE_a51e4716-795d-4661-a415-7098a016f445" opacity="1.000" fill="none" stroke="#f9642d" stroke-width="45.607" stroke-opacity="1.000" stroke-linecap="round" stroke-linejoin="round" d="M 1485.801 1007.828 Q 1486.004 1007.703 1486.314 1007.494 Q 1486.624 1007.286 1486.816 1007.178 Q 1487.008 1007.070 1487.671 1006.876 Q 1488.334 1006.682 1489.011 1006.555 Q 1489.688 1006.427 1490.099 1006.377 Q 1490.511 1006.327 1490.809 1006.336 Q 1491.107 1006.344 1491.322 1006.387 Q 1491.537 1006.430 1491.643 1006.490 Q 1491.749 1006.549 1491.866 1006.664 Q 1491.984 1006.778 1492.092 1007.011 Q 1492.199 1007.243 1492.204 1007.416 Q 1492.210 1007.588 1492.197 1007.754 Q 1492.184 1007.919 1492.179 1007.990 Q 1492.173 1008.061 1492.198 1008.071 Q 1492.222 1008.082 1492.318 1008.109 Q 1492.414 1008.137 1492.806 1008.430 Q 1493.198 1008.723 1493.431 1008.923 Q 1493.663 1009.123 1493.862 1009.303 Q 1494.061 1009.484 1494.222 1009.768 Q 1494.384 1010.051 1494.487 1010.334 Q 1494.590 1010.617 1495.000 1011.510 "/>
    <path id="STROKE_f8f397b7-33ef-4c79-9f06-12e46091a9b7" opacity="1.000" fill="none" stroke="#f9642d" stroke-width="32.591" stroke-opacity="1.000" stroke-linecap="round" stroke-linejoin="round" d="M 1554.199 995.572 Q 1554.212 995.242 1554.215 995.150 Q 1554.219 995.058 1554.222 994.949 Q 1554.226 994.841 1554.334 994.515 Q 1554.443 994.190 1554.629 993.926 Q 1554.815 993.662 1555.054 993.470 Q 1555.293 993.279 1555.515 993.251 Q 1555.737 993.223 1555.897 993.305 Q 1556.057 993.387 1556.145 993.615 Q 1556.233 993.843 1556.245 994.072 Q 1556.257 994.302 1556.203 994.671 Q 1556.148 995.040 1556.023 995.525 Q 1555.898 996.010 1555.778 996.338 Q 1555.658 996.666 1555.535 996.942 Q 1555.412 997.217 1555.331 997.344 Q 1555.249 997.471 1555.200 997.597 Q 1555.150 997.722 1555.131 997.794 Q 1555.113 997.865 1555.119 997.952 Q 1555.125 998.039 1555.145 998.170 Q 1555.166 998.300 1555.188 998.440 Q 1555.210 998.580 1555.265 998.914 Q 1555.320 999.248 1555.309 999.569 Q 1555.298 999.890 1555.236 1000.166 Q 1555.174 1000.443 1554.721 1002.037 "/>
    <path id="STROKE_2a3a7021-525f-48a7-93b2-46bb276db156" opacity="1.000" fill="none" stroke="#494445" stroke-width="34.466" stroke-opacity="1.000" stroke-linecap="round" stroke-linejoin="round" d="M 1483.844 -1241.737 L 1484.856 -1241.780 Q 1487.538 -1241.468 1488.427 -1241.305 Q 1489.317 -1241.142 1489.842 -1241.001 Q 1490.367 -1240.859 1490.581 -1240.777 Q 1490.796 -1240.695 1490.965 -1240.581 Q 1491.135 -1240.466 1491.130 -1240.409 Q 1491.126 -1240.352 1491.107 -1240.328 Q 1491.089 -1240.304 1490.961 -1240.182 Q 1490.834 -1240.059 1490.532 -1240.036 Q 1490.530 -1240.135 1490.524 -1240.094 "/>
    <path id="STROKE_084334a2-4b36-4af7-b279-f0f4d832aaca" opacity="1.000" fill="none" stroke="#b4544e" stroke-width="30.608" stroke-opacity="1.000" stroke-linecap="round" stroke-linejoin="round" d="M 1488.986 -1286.019 Q 1489.682 -1286.202 1489.944 -1286.158 Q 1490.205 -1286.114 1490.437 -1286.076 Q 1490.670 -1286.038 1490.979 -1285.851 Q 1491.287 -1285.664 1491.632 -1285.438 Q 1491.977 -1285.212 1492.308 -1284.944 Q 1492.639 -1284.676 1492.616 -1284.641 Q 1492.592 -1284.605 1492.755 -1284.444 Q 1492.918 -1284.283 1492.850 -1284.246 Q 1492.782 -1284.210 1493.350 -1283.690 "/>
    <path id="STROKE_01468672-ea77-4295-89ff-7d79f577036b" opacity="1.000" fill="none" stroke="#b4544e" stroke-width="39.980" stroke-opacity="1.000" stroke-linecap="round" stroke-linejoin="round" d="M 1493.638 -1342.194 L 1494.041 -1341.922 Q 1495.823 -1339.681 1495.990 -1339.448 Q 1496.157 -1339.216 1496.200 -1339.125 Q 1496.243 -1339.034 1496.305 -1338.773 Q 1496.367 -1338.512 1496.448 -1338.252 Q 1496.530 -1337.992 1496.582 -1337.835 Q 1496.634 -1337.678 1496.812 -1337.549 Q 1496.908 -1337.493 1497.388 -1337.035 Q 1497.869 -1336.576 1498.186 -1336.213 Q 1498.504 -1335.850 1498.624 -1335.669 Q 1498.743 -1335.487 1498.838 -1335.272 Q 1498.932 -1335.056 1499.280 -1334.131 "/>
    <path id="STROKE_089e6f51-8017-4e80-b498-b8f50a269ce3" opacity="1.000" fill="none" stroke="#b4544e" stroke-width="39.146" stroke-opacity="1.000" stroke-linecap="round" stroke-linejoin="round" d="M 1543.269 -1240.537 L 1543.838 -1240.576 Q 1544.162 -1240.567 1548.454 -1239.478 Q 1548.804 -1239.359 1550.956 -1239.357 Q 1551.116 -1239.355 1552.014 -1239.025 Q 1552.912 -1238.696 1553.737 -1238.272 L 1554.114 -1238.166 "/>
    <path id="STROKE_3b6f8a44-945b-4281-a07e-0e622cbbe43a" opacity="1.000" fill="none" stroke="#b4544e" stroke-width="39.985" stroke-opacity="1.000" stroke-linecap="round" stroke-linejoin="round" d="M 1552.016 -1291.235 Q 1552.273 -1291.017 1552.622 -1290.562 Q 1552.971 -1290.106 1553.242 -1289.801 Q 1553.513 -1289.496 1554.716 -1288.154 Q 1554.740 -1288.080 1554.957 -1287.603 Q 1555.174 -1287.125 1555.490 -1286.592 Q 1555.514 -1286.578 1555.953 -1286.057 Q 1556.393 -1285.536 1557.153 -1284.141 "/>
    <path id="STROKE_699d102f-0b26-4f46-afcf-27256a22f06f" opacity="1.000" fill="none" stroke="#b4544e" stroke-width="36.261" stroke-opacity="1.000" stroke-linecap="round" stroke-linejoin="round" d="M 1618.715 -1357.333 L 1618.855 -1356.915 Q 1618.781 -1356.747 1620.064 -1354.319 Q 1620.123 -1354.068 1620.231 -1353.822 Q 1620.339 -1353.575 1620.685 -1353.282 Q 1620.903 -1353.217 1622.193 -1351.732 L 1622.313 -1351.562 "/>
    <path id="STROKE_f944ff60-197e-42ab-b1a4-78878b4d3d5e" opacity="1.000" fill="none" stroke="#a26b98" stroke-width="41.008" stroke-opacity="1.000" stroke-linecap="round" stroke-linejoin="round" d="M 1663.882 -1412.105 Q 1664.012 -1412.134 1664.286 -1412.149 Q 1664.559 -1412.164 1664.850 -1412.162 Q 1665.140 -1412.161 1666.464 -1411.833 Q 1667.787 -1411.505 1668.365 -1411.368 Q 1668.451 -1411.377 1668.649 -1411.796 Q 1668.847 -1412.214 1668.885 -1412.433 Q 1668.927 -1412.485 1669.185 -1412.641 Q 1669.443 -1412.798 1669.541 -1412.847 Q 1669.485 -1412.849 1669.138 -1413.088 Q 1668.791 -1413.327 1668.662 -1413.466 "/>
    <path id="STROKE_c66693d1-4803-45a7-b6db-e2b5b11275a0" opacity="1.000" fill="none" stroke="#a26b98" stroke-width="38.715" stroke-opacity="1.000" stroke-linecap="round" stroke-linejoin="round" d="M 1706.221 -1478.061 Q 1706.319 -1477.891 1706.509 -1477.270 Q 1706.698 -1476.649 1706.772 -1476.368 Q 1706.846 -1476.088 1706.887 -1475.840 Q 1706.927 -1475.592 1706.981 -1475.141 Q 1707.035 -1474.690 1707.089 -1474.422 Q 1707.143 -1474.154 1707.229 -1473.931 Q 1707.336 -1473.800 1708.047 -1472.869 Q 1708.759 -1471.939 1709.337 -1471.333 Q 1709.916 -1470.728 1710.394 -1470.177 Q 1710.531 -1470.014 1710.738 -1469.876 Q 1710.945 -1469.738 1711.204 -1469.761 Q 1711.464 -1469.784 1711.806 -1469.878 Q 1712.037 -1469.904 1713.795 -1469.620 "/>
    <path id="STROKE_753b2fa4-cd58-4803-9229-c931005e2f57" opacity="1.000" fill="none" stroke="#a26b98" stroke-width="50.725" stroke-opacity="1.000" stroke-linecap="round" stroke-linejoin="round" d="M 1769.832 -1414.254 Q 1769.965 -1414.375 1770.160 -1414.491 Q 1770.354 -1414.607 1770.762 -1414.769 Q 1771.169 -1414.931 1771.631 -1415.052 Q 1772.093 -1415.173 1772.481 -1415.251 Q 1772.547 -1415.505 1772.570 -1416.002 Q 1772.594 -1416.499 1772.515 -1416.827 Q 1772.435 -1417.154 1772.347 -1417.505 Q 1772.410 -1417.729 1772.567 -1418.232 Q 1772.520 -1418.239 1772.074 -1418.697 Q 1771.627 -1419.154 1771.298 -1419.493 "/>
    <path id="STROKE_8fb9b8f8-7818-4b7e-8a91-2c00d4a67998" opacity="1.000" fill="none" stroke="#a26b98" stroke-width="38.563" stroke-opacity="1.000" stroke-linecap="round" stroke-linejoin="round" d="M 1835.454 -1481.032 Q 1836.062 -1481.174 1836.737 -1480.845 Q 1837.132 -1480.899 1837.383 -1480.886 Q 1837.633 -1480.873 1838.138 -1480.755 Q 1838.644 -1480.638 1839.818 -1480.256 Q 1839.920 -1480.146 1840.545 -1480.526 Q 1840.565 -1480.557 1841.587 -1480.310 "/>
    <path id="STROKE_0972dfcc-82cb-440c-a900-c5ec2f70e36d" opacity="1.000" fill="none" stroke="#ffce2b" stroke-width="38.816" stroke-opacity="1.000" stroke-linecap="round" stroke-linejoin="round" d="M 1924.416 -1408.177 Q 1924.611 -1408.126 1925.586 -1408.202 Q 1925.814 -1408.229 1927.350 -1407.460 Q 1927.547 -1407.463 1927.992 -1407.506 Q 1928.136 -1407.503 1929.816 -1406.834 Q 1929.987 -1406.723 1930.290 -1406.562 Q 1930.593 -1406.402 1930.691 -1406.373 Q 1930.789 -1406.344 1931.243 -1406.037 Q 1931.698 -1405.729 1932.077 -1405.209 Q 1932.455 -1404.688 1932.597 -1404.296 Q 1932.738 -1403.902 1932.718 -1403.578 Q 1932.697 -1403.254 1932.611 -1403.062 Q 1932.525 -1402.870 1932.046 -1402.593 Q 1931.567 -1402.317 1930.910 -1402.140 Q 1930.253 -1401.963 1929.559 -1401.874 Q 1928.866 -1401.786 1927.196 -1401.818 Q 1927.106 -1401.836 1926.771 -1401.588 Q 1926.436 -1401.339 1926.120 -1401.114 Q 1925.803 -1400.890 1925.333 -1400.564 Q 1924.990 -1400.396 1923.714 -1400.500 Q 1922.437 -1400.603 1921.603 -1400.602 "/>
    <path id="STROKE_8873098a-b37d-494b-9bfe-5f6ae229aa3b" opacity="1.000" fill="none" stroke="#ffce2b" stroke-width="35.047" stroke-opacity="1.000" stroke-linecap="round" stroke-linejoin="round" d="M 1889.949 -1213.566 Q 1892.239 -1214.860 1893.430 -1215.526 Q 1894.621 -1216.193 1895.331 -1216.419 Q 1896.040 -1216.645 1898.464 -1217.266 Q 1900.887 -1217.887 1902.209 -1218.080 Q 1903.531 -1218.273 1904.177 -1218.315 Q 1904.824 -1218.357 1905.168 -1218.355 Q 1905.512 -1218.352 1905.900 -1218.318 Q 1906.287 -1218.283 1906.658 -1218.347 Q 1907.029 -1218.412 1907.315 -1218.537 Q 1907.601 -1218.663 1907.753 -1218.756 Q 1907.904 -1218.849 1908.040 -1218.927 Q 1908.175 -1219.004 1908.286 -1219.060 Q 1908.397 -1219.115 1908.540 -1219.174 Q 1908.684 -1219.233 1909.040 -1219.131 Q 1909.397 -1219.028 1909.770 -1218.726 Q 1910.142 -1218.423 1910.342 -1217.902 Q 1910.542 -1217.380 1910.554 -1216.960 Q 1910.567 -1216.539 1910.508 -1216.294 Q 1910.449 -1216.049 1910.347 -1215.821 Q 1910.245 -1215.594 1909.870 -1215.250 Q 1909.494 -1214.906 1909.197 -1214.668 Q 1908.900 -1214.431 1908.176 -1213.766 "/>
    <path id="STROKE_645ed002-8a07-4816-986e-5892f58d3412" opacity="1.000" fill="none" stroke="#ffce2b" stroke-width="30.690" stroke-opacity="1.000" stroke-linecap="round" stroke-linejoin="round" d="M 1911.601 -1301.043 Q 1911.747 -1300.949 1912.474 -1300.677 Q 1913.200 -1300.404 1913.637 -1300.232 Q 1914.074 -1300.059 1915.145 -1299.560 Q 1916.217 -1299.061 1917.846 -1298.161 Q 1919.476 -1297.260 1921.125 -1296.211 Q 1922.773 -1295.163 1923.827 -1294.374 Q 1924.881 -1293.585 1925.493 -1293.018 Q 1926.105 -1292.451 1926.391 -1292.137 Q 1926.676 -1291.822 1926.984 -1291.458 Q 1927.291 -1291.093 1927.453 -1290.903 Q 1927.616 -1290.713 1927.894 -1290.539 Q 1928.172 -1290.365 1928.411 -1290.282 Q 1928.649 -1290.198 1928.812 -1290.165 Q 1928.974 -1290.132 1929.125 -1290.130 Q 1929.275 -1290.127 1929.458 -1290.112 Q 1929.642 -1290.097 1930.233 -1289.926 Q 1930.825 -1289.755 1931.509 -1289.472 Q 1932.193 -1289.189 1932.766 -1288.900 Q 1933.339 -1288.610 1933.784 -1288.228 L 1933.923 -1288.122 "/>
    <path id="STROKE_53f21e45-2486-413b-967f-9cc83f2f9f80" opacity="1.000" fill="none" stroke="#ffce2b" stroke-width="28.154" stroke-opacity="1.000" stroke-linecap="round" stroke-linejoin="round" d="M 1914.441 -1352.365 Q 1915.818 -1352.334 1916.611 -1352.145 Q 1917.404 -1351.957 1918.088 -1351.745 Q 1918.772 -1351.532 1919.496 -1351.179 Q 1920.220 -1350.827 1920.694 -1350.536 Q 1921.168 -1350.244 1921.507 -1349.965 Q 1921.846 -1349.687 1921.985 -1349.536 Q 1922.124 -1349.384 1922.245 -1349.208 Q 1922.366 -1349.032 1922.492 -1348.890 Q 1922.619 -1348.749 1922.740 -1348.642 Q 1922.862 -1348.536 1922.941 -1348.476 Q 1923.021 -1348.416 1923.142 -1348.356 Q 1923.263 -1348.296 1923.353 -1348.264 Q 1923.442 -1348.232 1923.595 -1348.137 Q 1923.749 -1348.042 1924.083 -1347.783 Q 1924.417 -1347.524 1924.769 -1347.152 Q 1925.122 -1346.780 1925.391 -1346.384 Q 1925.661 -1345.989 1925.799 -1345.712 Q 1925.938 -1345.435 1926.064 -1345.109 Q 1926.189 -1344.784 1926.612 -1343.168 "/>
    <path id="STROKE_fc659db9-c044-42b8-8869-5d51406b5e0b" opacity="1.000" fill="none" stroke="#ffce2b" stroke-width="33.646" stroke-opacity="1.000" stroke-linecap="round" stroke-linejoin="round" d="M 2004.187 -1301.106 Q 2004.889 -1302.574 2005.174 -1303.111 Q 2005.460 -1303.647 2005.586 -1303.851 Q 2005.711 -1304.054 2005.878 -1304.239 Q 2006.044 -1304.425 2006.521 -1304.702 Q 2006.997 -1304.980 2007.430 -1305.139 Q 2007.863 -1305.297 2008.249 -1305.328 Q 2008.634 -1305.359 2008.825 -1305.331 Q 2009.015 -1305.303 2009.114 -1305.255 Q 2009.213 -1305.207 2009.265 -1305.174 Q 2009.316 -1305.141 2009.328 -1305.121 Q 2009.340 -1305.100 2009.375 -1305.252 Q 2009.410 -1305.404 2009.508 -1305.437 Q 2009.605 -1305.470 2010.021 -1305.360 Q 2010.437 -1305.249 2010.836 -1305.002 Q 2010.894 -1305.016 2011.036 -1305.201 Q 2011.179 -1305.385 2011.379 -1305.592 Q 2011.580 -1305.798 2011.905 -1305.988 Q 2012.230 -1306.179 2015.220 -1306.215 Q 2015.472 -1306.193 2015.891 -1306.396 Q 2016.310 -1306.600 2016.635 -1306.718 Q 2016.961 -1306.836 2017.138 -1306.878 Q 2017.314 -1306.919 2017.587 -1306.952 Q 2017.860 -1306.984 2018.380 -1306.844 Q 2018.900 -1306.704 2019.314 -1306.456 Q 2019.727 -1306.207 2019.985 -1305.665 Q 2020.243 -1305.123 2020.199 -1304.573 Q 2020.155 -1304.023 2019.917 -1303.479 Q 2019.680 -1302.934 2019.199 -1302.386 Q 2018.718 -1301.838 2017.824 -1301.222 Q 2016.931 -1300.607 2015.822 -1300.025 Q 2014.713 -1299.443 2013.218 -1298.845 Q 2011.722 -1298.248 2010.738 -1297.964 Q 2009.754 -1297.681 2007.533 -1296.735 "/>
    <path id="STROKE_45c286d9-1735-40d9-9700-fced9ce9edca" opacity="1.000" fill="none" stroke="#4245a3" stroke-width="46.709" stroke-opacity="1.000" stroke-linecap="round" stroke-linejoin="round" d="M 2005.986 -1356.434 Q 2007.249 -1357.086 2008.320 -1357.482 Q 2009.392 -1357.878 2010.019 -1358.192 Q 2010.646 -1358.505 2011.396 -1358.718 Q 2012.146 -1358.931 2012.639 -1359.060 Q 2013.133 -1359.188 2014.902 -1359.291 Q 2015.145 -1359.199 2015.824 -1359.209 Q 2016.504 -1359.219 2018.059 -1359.167 Q 2018.342 -1359.232 2019.437 -1359.399 Q 2020.533 -1359.566 2021.292 -1359.496 "/>
    <path id="STROKE_8aeda8dc-df97-40a1-93a1-d673d0f265e8" opacity="1.000" fill="none" stroke="#4245a3" stroke-width="40.410" stroke-opacity="1.000" stroke-linecap="round" stroke-linejoin="round" d="M 2012.981 -1436.663 Q 2013.105 -1436.733 2013.454 -1436.845 Q 2013.802 -1436.957 2014.417 -1436.983 Q 2015.033 -1437.010 2015.687 -1436.942 Q 2015.942 -1436.676 2015.992 -1436.607 Q 2016.043 -1436.539 2016.045 -1436.527 Q 2016.047 -1436.516 2016.084 -1436.644 Q 2016.433 -1436.928 2017.211 -1437.147 Q 2017.990 -1437.366 2018.820 -1437.373 Q 2019.033 -1437.338 2018.917 -1437.443 Q 2018.801 -1437.547 2018.596 -1437.950 Q 2018.572 -1438.030 2018.923 -1438.264 Q 2019.275 -1438.498 2020.379 -1439.151 "/>
    <path id="STROKE_29f85e37-5f63-4d20-ab60-ffbcbc347478" opacity="1.000" fill="none" stroke="#4245a3" stroke-width="44.640" stroke-opacity="1.000" stroke-linecap="round" stroke-linejoin="round" d="M 2016.875 -1508.650 Q 2017.020 -1508.756 2017.230 -1508.952 Q 2017.441 -1509.149 2020.257 -1509.541 Q 2020.352 -1509.486 2021.113 -1509.663 Q 2021.257 -1509.794 2024.142 -1509.815 Q 2024.255 -1509.738 2024.260 -1509.563 Q 2024.265 -1509.388 2025.510 -1509.140 "/>
    <path id="STROKE_88a46251-b632-4e9c-9c6f-ab38e74b3dd6" opacity="1.000" fill="none" stroke="#4245a3" stroke-width="40.706" stroke-opacity="1.000" stroke-linecap="round" stroke-linejoin="round" d="M 2106.537 -1369.503 Q 2106.483 -1369.456 2106.324 -1369.749 Q 2106.869 -1369.780 2108.154 -1369.771 Q 2108.146 -1369.685 2107.523 -1369.667 Q 2106.901 -1369.649 2107.689 -1369.671 Q 2108.479 -1369.692 2109.045 -1369.677 Q 2109.611 -1369.662 2109.625 -1369.675 "/>
    <path id="STROKE_88697546-4a22-45ab-82df-7b230a00ad09" opacity="1.000" fill="none" stroke="#4245a3" stroke-width="40.018" stroke-opacity="1.000" stroke-linecap="round" stroke-linejoin="round" d="M 2102.663 -1448.843 Q 2102.954 -1449.547 2103.343 -1449.967 Q 2103.732 -1450.386 2105.697 -1451.448 Q 2105.871 -1451.463 2106.364 -1452.199 Q 2106.857 -1452.935 2107.516 -1454.314 Q 2107.589 -1454.461 2108.799 -1455.241 Q 2110.009 -1456.021 2111.270 -1456.724 Q 2112.531 -1457.427 2114.646 -1459.095 "/>
    <path id="STROKE_e75672cf-6959-4336-844c-9582358008c5" opacity="1.000" fill="none" stroke="#4245a3" stroke-width="35.543" stroke-opacity="1.000" stroke-linecap="round" stroke-linejoin="round" d="M 2101.905 -1525.356 Q 2102.292 -1525.570 2102.325 -1525.678 Q 2102.358 -1525.786 2103.016 -1526.113 Q 2103.673 -1526.441 2105.799 -1527.196 Q 2105.848 -1527.323 2107.469 -1528.139 Q 2107.519 -1528.136 2110.144 -1528.342 Q 2112.768 -1528.547 2113.945 -1528.571 "/>
    <path id="STROKE_63f742c2-4da0-44aa-9b47-6caf9054755b" opacity="1.000" fill="none" stroke="#f85db3" stroke-width="25.031" stroke-opacity="1.000" stroke-linecap="round" stroke-linejoin="round" d="M 1420.476 -1235.333 Q 1420.838 -1235.525 1421.344 -1235.646 Q 1421.849 -1235.766 1422.655 -1235.641 Q 1423.461 -1235.516 1425.377 -1235.056 Q 1425.983 -1235.060 1425.125 -1235.627 Q 1425.172 -1235.665 1425.500 -1235.729 Q 1425.771 -1235.402 1424.558 -1235.607 "/>
    <path id="STROKE_31526a43-6589-45f6-9cda-08b1e0b1af74" opacity="1.000" fill="none" stroke="#f85db3" stroke-width="27.594" stroke-opacity="1.000" stroke-linecap="round" stroke-linejoin="round" d="M 1425.267 -1281.443 Q 1425.709 -1283.069 1425.873 -1283.316 Q 1426.037 -1283.564 1426.871 -1286.179 Q 1427.705 -1288.793 1430.243 -1291.851 Q 1430.353 -1291.790 1431.346 -1296.081 "/>
    <path id="STROKE_86217d24-0e65-4057-bca2-60285df10df7" opacity="1.000" fill="none" stroke="#f85db3" stroke-width="27.878" stroke-opacity="1.000" stroke-linecap="round" stroke-linejoin="round" d="M 1428.240 -1357.835 Q 1428.213 -1358.068 1427.959 -1358.546 Q 1427.706 -1359.023 1428.807 -1358.255 Q 1428.731 -1358.347 1428.492 -1358.670 Q 1428.565 -1358.716 1428.975 -1358.725 Q 1429.386 -1358.733 1429.702 -1358.460 Q 1430.018 -1358.186 1430.009 -1358.092 Q 1429.999 -1357.998 1429.868 -1357.948 Q 1429.737 -1357.898 1429.656 -1358.032 Q 1429.575 -1358.167 1429.482 -1358.506 "/>
    <path id="STROKE_afea020c-9ee5-4347-ab3c-79dd66b153af" opacity="1.000" fill="none" stroke="#5a6edc" stroke-width="33.296" stroke-opacity="1.000" stroke-linecap="round" stroke-linejoin="round" d="M 1325.048 -1232.375 Q 1325.232 -1232.258 1326.432 -1233.372 Q 1327.055 -1233.279 1327.681 -1233.061 Q 1328.308 -1232.844 1328.656 -1232.721 Q 1329.005 -1232.597 1329.111 -1232.525 Q 1329.217 -1232.453 1329.240 -1232.565 Q 1329.262 -1232.677 1329.282 -1232.840 Q 1329.302 -1233.003 1329.318 -1233.126 Q 1329.333 -1233.250 1329.411 -1233.507 Q 1329.489 -1233.765 1329.656 -1234.044 Q 1329.824 -1234.324 1330.048 -1234.614 Q 1330.272 -1234.904 1330.500 -1235.082 Q 1330.728 -1235.259 1331.330 -1235.683 Q 1331.931 -1236.108 1334.483 -1237.338 Q 1334.593 -1237.463 1334.918 -1238.279 Q 1335.243 -1239.095 1335.579 -1239.832 Q 1335.915 -1240.570 1336.230 -1241.147 Q 1336.544 -1241.724 1337.003 -1242.279 Q 1337.462 -1242.834 1337.926 -1243.213 Q 1338.389 -1243.593 1340.130 -1244.850 Q 1341.870 -1246.107 1343.543 -1247.304 L 1345.234 -1249.452 "/>
    <path id="STROKE_77bb6491-44ca-473e-9f18-d1030f0df529" opacity="1.000" fill="none" stroke="#5a6edc" stroke-width="27.126" stroke-opacity="1.000" stroke-linecap="round" stroke-linejoin="round" d="M 1325.936 -1306.693 Q 1326.430 -1307.018 1326.939 -1307.224 Q 1327.448 -1307.429 1327.787 -1307.516 Q 1328.125 -1307.604 1329.212 -1307.640 Q 1330.297 -1307.675 1330.946 -1307.631 Q 1331.316 -1307.867 1331.576 -1308.176 Q 1331.835 -1308.484 1332.032 -1308.666 Q 1332.229 -1308.848 1332.444 -1309.126 Q 1332.659 -1309.405 1332.942 -1309.549 Q 1333.224 -1309.694 1334.112 -1309.875 Q 1335.000 -1310.055 1335.571 -1310.085 Q 1336.142 -1310.115 1336.572 -1310.165 Q 1337.001 -1310.214 1337.319 -1310.235 Q 1337.636 -1310.256 1337.646 -1310.285 Q 1337.656 -1310.314 1337.683 -1310.457 Q 1337.709 -1310.600 1337.677 -1310.787 Q 1337.645 -1310.974 1337.797 -1311.352 Q 1337.949 -1311.729 1338.074 -1312.052 Q 1338.199 -1312.375 1339.600 -1313.311 "/>
    <path id="STROKE_b24c620e-ae71-4ebf-a4d1-42272c1901cb" opacity="1.000" fill="none" stroke="#5a6edc" stroke-width="33.217" stroke-opacity="1.000" stroke-linecap="round" stroke-linejoin="round" d="M 1337.913 -1385.952 Q 1338.794 -1386.051 1339.059 -1386.033 Q 1339.323 -1386.014 1339.692 -1385.849 Q 1340.061 -1385.684 1340.486 -1385.303 Q 1340.912 -1384.922 1341.109 -1384.661 Q 1341.307 -1384.402 1341.444 -1384.108 Q 1341.581 -1383.814 1341.536 -1383.691 Q 1341.492 -1383.568 1341.275 -1383.434 Q 1341.057 -1383.299 1340.771 -1383.298 Q 1340.485 -1383.297 1340.165 -1383.413 Q 1339.844 -1383.528 1339.638 -1383.663 Q 1339.431 -1383.799 1339.405 -1383.877 Q 1339.379 -1383.956 1339.359 -1383.917 Q 1339.339 -1383.877 1339.309 -1383.828 Q 1339.279 -1383.778 1339.169 -1383.605 Q 1339.058 -1383.432 1338.888 -1383.303 Q 1338.719 -1383.174 1338.456 -1383.106 Q 1338.192 -1383.039 1337.418 -1382.993 Q 1336.645 -1382.947 1334.631 -1383.238 "/>
    <path id="STROKE_a07ab4df-cf2f-4924-8bd3-a480ff293da5" opacity="1.000" fill="none" stroke="#5a6edc" stroke-width="33.122" stroke-opacity="1.000" stroke-linecap="round" stroke-linejoin="round" d="M 1329.440 -1476.465 Q 1330.353 -1476.903 1331.364 -1477.057 Q 1332.374 -1477.211 1334.037 -1477.221 Q 1335.700 -1477.232 1336.017 -1477.394 Q 1336.333 -1477.556 1336.909 -1477.817 Q 1337.484 -1478.078 1338.813 -1478.646 Q 1339.417 -1478.783 1340.657 -1478.635 Q 1341.897 -1478.488 1342.728 -1478.306 Q 1343.560 -1478.124 1344.271 -1477.874 Q 1344.982 -1477.625 1345.434 -1477.561 Q 1345.886 -1477.496 1346.300 -1477.476 Q 1346.713 -1477.456 1347.025 -1477.503 Q 1347.336 -1477.549 1348.200 -1477.911 Q 1348.755 -1478.102 1354.506 -1477.624 "/>
    <path id="STROKE_a9172e5e-a3db-465c-9d84-c73c2750fd54" opacity="1.000" fill="none" stroke="#5a6edc" stroke-width="27.447" stroke-opacity="1.000" stroke-linecap="round" stroke-linejoin="round" d="M 1719.271 -1568.685 Q 1719.185 -1568.404 1719.296 -1568.100 Q 1719.407 -1567.796 1719.460 -1567.241 Q 1719.513 -1566.685 1719.501 -1566.109 Q 1719.489 -1565.533 1719.403 -1565.123 Q 1719.317 -1564.713 1718.989 -1564.139 Q 1718.661 -1563.565 1718.204 -1562.961 Q 1717.748 -1562.357 1717.480 -1562.040 Q 1717.213 -1561.723 1717.128 -1561.648 Q 1717.044 -1561.573 1716.967 -1561.503 Q 1716.889 -1561.433 1716.875 -1561.330 Q 1716.860 -1561.227 1717.006 -1561.052 Q 1717.151 -1560.877 1717.280 -1560.696 Q 1717.410 -1560.515 1717.622 -1560.134 Q 1717.834 -1559.753 1718.013 -1559.286 Q 1718.192 -1558.819 1718.227 -1558.452 Q 1718.261 -1558.085 1718.242 -1557.895 Q 1718.223 -1557.705 1718.162 -1557.563 Q 1718.101 -1557.421 1717.770 -1557.232 Q 1717.438 -1557.043 1717.189 -1557.013 Q 1716.939 -1556.983 1716.729 -1557.015 Q 1716.518 -1557.046 1716.413 -1557.209 Q 1716.309 -1557.371 1716.292 -1557.512 Q 1716.276 -1557.653 1716.427 -1557.631 Q 1716.578 -1557.608 1716.742 -1557.401 "/>
    <path id="STROKE_99cea8ed-5081-4477-90d5-b3c33db4ac44" opacity="1.000" fill="none" stroke="#5a6edc" stroke-width="31.528" stroke-opacity="1.000" stroke-linecap="round" stroke-linejoin="round" d="M 1693.052 -1649.103 Q 1694.366 -1650.472 1694.787 -1650.828 Q 1695.208 -1651.185 1695.481 -1651.355 Q 1695.753 -1651.524 1698.140 -1652.492 Q 1700.526 -1653.460 1701.876 -1654.040 Q 1702.045 -1654.141 1702.530 -1655.038 Q 1703.014 -1655.935 1703.572 -1657.052 Q 1704.129 -1658.170 1704.659 -1659.223 Q 1705.189 -1660.275 1705.727 -1661.311 Q 1706.265 -1662.347 1707.038 -1663.081 Q 1707.811 -1663.815 1708.770 -1664.583 Q 1709.729 -1665.351 1710.443 -1665.854 Q 1711.157 -1666.358 1711.568 -1666.639 Q 1711.979 -1666.920 1712.198 -1667.172 Q 1712.416 -1667.426 1712.503 -1667.823 Q 1712.590 -1668.221 1712.678 -1668.704 Q 1712.767 -1669.186 1712.983 -1669.848 Q 1713.198 -1670.509 1713.406 -1670.980 Q 1713.615 -1671.451 1715.056 -1673.438 "/>
    <path id="STROKE_904ecd85-ade0-49d8-b128-03714f7c63d6" opacity="1.000" fill="none" stroke="#5a6edc" stroke-width="28.893" stroke-opacity="1.000" stroke-linecap="round" stroke-linejoin="round" d="M 1844.423 -1569.325 Q 1844.400 -1569.078 1844.433 -1568.871 Q 1844.465 -1568.663 1844.501 -1568.306 Q 1844.536 -1567.949 1844.408 -1567.485 Q 1844.280 -1567.021 1844.140 -1566.561 Q 1844.001 -1566.102 1843.728 -1565.755 Q 1843.455 -1565.407 1842.849 -1565.060 Q 1842.244 -1564.713 1841.690 -1564.554 Q 1841.135 -1564.395 1840.585 -1564.390 Q 1840.036 -1564.385 1839.479 -1564.491 Q 1838.922 -1564.597 1838.488 -1564.772 Q 1838.055 -1564.948 1837.627 -1565.159 Q 1837.199 -1565.369 1837.090 -1565.417 Q 1836.981 -1565.464 1836.673 -1565.555 Q 1836.365 -1565.645 1835.864 -1565.612 Q 1835.362 -1565.580 1834.974 -1565.568 Q 1834.585 -1565.555 1833.818 -1565.534 Q 1833.051 -1565.514 1831.875 -1565.759 Q 1830.699 -1566.004 1829.494 -1566.338 Q 1828.289 -1566.672 1826.129 -1567.641 Q 1823.968 -1568.610 1822.551 -1569.203 "/>
    <path id="STROKE_55dff1ff-7573-4359-8fb4-02a924a75eb0" opacity="1.000" fill="none" stroke="#5a6edc" stroke-width="29.659" stroke-opacity="1.000" stroke-linecap="round" stroke-linejoin="round" d="M 1819.180 -1685.210 Q 1820.862 -1683.936 1821.786 -1683.210 Q 1822.711 -1682.484 1823.249 -1681.970 Q 1823.788 -1681.457 1825.969 -1679.262 Q 1828.150 -1677.067 1830.402 -1674.668 Q 1832.654 -1672.268 1833.915 -1670.853 Q 1835.175 -1669.438 1836.278 -1667.998 Q 1837.196 -1666.907 1838.265 -1666.156 Q 1839.335 -1665.405 1840.129 -1664.882 Q 1840.923 -1664.359 1841.430 -1664.191 Q 1844.574 -1662.396 1848.638 -1659.319 "/>
    <path id="STROKE_573a1b46-a49f-40f8-8f3f-ea06a84fa9f3" opacity="1.000" fill="none" stroke="#f9642d" stroke-width="34.318" stroke-opacity="1.000" stroke-linecap="round" stroke-linejoin="round" d="M 1501.086 -1419.498 Q 1501.681 -1419.722 1502.058 -1419.816 Q 1502.434 -1419.909 1502.796 -1419.971 Q 1503.158 -1420.033 1503.942 -1419.815 Q 1504.726 -1419.598 1506.822 -1419.024 Q 1507.030 -1418.904 1506.770 -1418.708 Q 1506.510 -1418.512 1505.688 -1418.716 Q 1505.598 -1418.844 1505.548 -1418.667 Q 1505.499 -1418.490 1505.262 -1418.216 Q 1505.026 -1417.942 1504.803 -1417.772 Q 1504.581 -1417.602 1504.330 -1417.505 Q 1504.079 -1417.407 1503.653 -1417.330 Q 1503.227 -1417.252 1502.427 -1417.289 Q 1501.628 -1417.325 1501.089 -1417.407 Q 1500.551 -1417.489 1498.292 -1417.668 "/>
    <path id="STROKE_58e42e9e-0d4a-4532-9a86-4d26bcdcfcf5" opacity="1.000" fill="none" stroke="#f9642d" stroke-width="29.874" stroke-opacity="1.000" stroke-linecap="round" stroke-linejoin="round" d="M 1430.636 -1475.428 Q 1430.713 -1475.245 1431.194 -1474.927 Q 1431.676 -1474.609 1432.137 -1473.768 Q 1432.597 -1472.928 1433.187 -1471.827 Q 1433.778 -1470.727 1434.196 -1469.188 Q 1434.189 -1468.537 1433.916 -1468.020 Q 1433.642 -1467.503 1433.465 -1467.358 Q 1433.288 -1467.212 1433.445 -1466.798 Q 1433.602 -1466.384 1433.603 -1465.900 Q 1433.603 -1465.417 1433.574 -1465.089 Q 1433.545 -1464.762 1433.413 -1464.590 Q 1433.281 -1464.419 1433.067 -1464.328 Q 1432.853 -1464.238 1432.319 -1463.990 Q 1431.786 -1463.742 1429.926 -1463.138 "/>
    <path id="STROKE_32ad39dc-e6a6-433e-b5a8-0bb68bde2e95" opacity="1.000" fill="none" stroke="#f9642d" stroke-width="24.647" stroke-opacity="1.000" stroke-linecap="round" stroke-linejoin="round" d="M 1414.708 -1600.919 Q 1416.467 -1600.889 1416.940 -1600.883 Q 1417.413 -1600.877 1418.487 -1600.735 Q 1419.561 -1600.593 1420.784 -1600.184 Q 1422.007 -1599.774 1423.835 -1598.995 Q 1425.664 -1598.215 1426.271 -1597.936 Q 1426.879 -1597.658 1427.267 -1597.377 Q 1427.655 -1597.097 1427.761 -1596.983 Q 1427.867 -1596.869 1428.173 -1596.603 Q 1428.478 -1596.337 1428.952 -1596.226 Q 1429.275 -1596.193 1429.937 -1595.710 Q 1430.598 -1595.228 1430.744 -1595.062 Q 1430.891 -1594.895 1430.939 -1594.723 Q 1430.987 -1594.551 1431.097 -1594.190 Q 1431.207 -1593.829 1431.047 -1593.694 Q 1430.887 -1593.559 1430.767 -1593.283 Q 1430.646 -1593.006 1430.466 -1592.948 Q 1430.286 -1592.889 1430.287 -1592.888 Q 1430.288 -1592.887 1430.192 -1592.624 "/>
    <path id="STROKE_c7761c27-1169-4a6c-9ef7-1579b9333561" opacity="1.000" fill="none" stroke="#f9642d" stroke-width="30.611" stroke-opacity="1.000" stroke-linecap="round" stroke-linejoin="round" d="M 2186.162 -1377.779 Q 2186.149 -1378.568 2186.143 -1378.860 Q 2186.136 -1379.151 2185.969 -1379.558 Q 2185.802 -1379.964 2185.532 -1380.333 Q 2185.490 -1380.361 2185.494 -1380.591 Q 2185.497 -1380.821 2185.541 -1381.412 Q 2184.971 -1381.828 2183.132 -1384.472 Q 2182.988 -1384.852 2182.956 -1385.146 Q 2182.924 -1385.441 2182.884 -1385.620 Q 2182.844 -1385.799 2182.683 -1386.086 Q 2182.523 -1386.374 2182.192 -1386.649 Q 2181.862 -1386.924 2181.621 -1387.051 Q 2181.379 -1387.177 2181.181 -1387.266 Q 2180.983 -1387.354 2180.631 -1387.574 Q 2180.279 -1387.794 2179.584 -1388.291 Q 2178.890 -1388.787 2178.141 -1389.497 Q 2177.391 -1390.208 2176.659 -1391.025 Q 2175.926 -1391.842 2174.894 -1393.332 "/>
    <path id="STROKE_facc3d72-fcff-49ec-bc52-c39408158209" opacity="1.000" fill="none" stroke="#f9642d" stroke-width="27.361" stroke-opacity="1.000" stroke-linecap="round" stroke-linejoin="round" d="M 2193.926 -1466.889 L 2194.209 -1467.739 Q 2194.234 -1467.796 2194.460 -1467.739 Q 2194.686 -1467.682 2195.017 -1467.547 Q 2195.348 -1467.412 2195.539 -1467.337 Q 2195.729 -1467.261 2195.694 -1467.196 Q 2195.659 -1467.130 2195.550 -1467.178 Q 2195.440 -1467.225 2195.329 -1467.603 Q 2195.216 -1467.980 2195.124 -1468.520 Q 2195.031 -1469.060 2195.139 -1469.951 Q 2195.530 -1470.645 2197.110 -1470.646 Q 2197.123 -1470.632 2196.953 -1471.016 Q 2196.784 -1471.399 2196.766 -1471.951 "/>
    <path id="STROKE_6b718654-93c8-4a69-87b4-04e2cdba0950" opacity="1.000" fill="none" stroke="#f9642d" stroke-width="26.545" stroke-opacity="1.000" stroke-linecap="round" stroke-linejoin="round" d="M 2177.600 -1574.357 Q 2177.841 -1574.009 2178.733 -1572.984 Q 2179.625 -1571.958 2180.666 -1569.941 Q 2181.706 -1567.924 2182.236 -1566.740 Q 2182.766 -1565.556 2183.199 -1564.440 Q 2183.633 -1563.324 2183.772 -1562.803 Q 2183.911 -1562.282 2183.948 -1561.766 Q 2183.985 -1561.250 2184.104 -1560.587 Q 2184.223 -1559.925 2184.349 -1559.182 Q 2184.474 -1558.438 2184.633 -1557.973 Q 2184.917 -1557.480 2185.572 -1555.820 Q 2186.227 -1554.160 2186.845 -1550.761 Q 2186.780 -1550.285 2186.338 -1549.598 Q 2185.896 -1548.911 2185.630 -1547.307 "/>
    <path id="STROKE_de49c940-c7b8-41e8-986e-c6ccba1a8455" opacity="1.000" fill="none" stroke="#f9642d" stroke-width="35.919" stroke-opacity="1.000" stroke-linecap="round" stroke-linejoin="round" d="M 2307.100 -1236.766 Q 2308.876 -1239.759 2310.054 -1240.353 Q 2311.232 -1240.946 2312.263 -1241.386 Q 2312.313 -1241.731 2312.382 -1242.735 Q 2312.451 -1243.740 2312.461 -1244.416 Q 2312.472 -1245.092 2312.453 -1245.435 Q 2312.434 -1245.778 2312.488 -1245.981 Q 2312.542 -1246.184 2312.705 -1246.321 Q 2312.869 -1246.458 2312.924 -1246.479 Q 2312.980 -1246.501 2312.935 -1246.460 Q 2312.891 -1246.419 2312.715 -1246.297 Q 2312.538 -1246.174 2312.235 -1246.015 Q 2311.932 -1245.855 2311.422 -1245.760 Q 2310.912 -1245.665 2309.958 -1245.640 Q 2309.003 -1245.616 2307.238 -1245.933 Q 2305.473 -1246.250 2303.284 -1246.342 "/>
    <path id="STROKE_9be5f3cf-76f8-4a00-a779-b090df0d993b" opacity="1.000" fill="none" stroke="#f9642d" stroke-width="33.887" stroke-opacity="1.000" stroke-linecap="round" stroke-linejoin="round" d="M 2314.021 -1335.054 Q 2314.808 -1335.046 2315.063 -1334.858 Q 2315.319 -1334.671 2315.851 -1334.098 Q 2316.383 -1333.526 2316.673 -1333.033 Q 2316.636 -1332.932 2316.632 -1333.351 Q 2316.628 -1333.769 2316.723 -1334.586 Q 2316.674 -1334.694 2316.957 -1334.805 Q 2317.239 -1334.915 2317.422 -1335.532 Q 2316.991 -1335.790 2314.409 -1340.415 L 2314.420 -1340.635 "/>
    <path id="STROKE_74ed089c-b561-446c-a67e-1b2aea13b8d0" opacity="1.000" fill="none" stroke="#61daac" stroke-width="35.080" stroke-opacity="1.000" stroke-linecap="round" stroke-linejoin="round" d="M 2298.937 -1448.225 Q 2299.181 -1448.380 2301.167 -1449.882 Q 2302.503 -1450.218 2303.195 -1450.246 Q 2303.886 -1450.274 2305.217 -1450.144 Q 2306.547 -1450.013 2306.833 -1449.951 Q 2307.119 -1449.888 2307.490 -1449.758 Q 2307.862 -1449.628 2308.066 -1449.644 Q 2308.271 -1449.659 2308.448 -1449.693 Q 2308.626 -1449.727 2308.958 -1449.878 Q 2309.290 -1450.029 2309.504 -1450.121 Q 2309.718 -1450.212 2310.233 -1450.375 Q 2310.750 -1450.539 2311.462 -1450.469 Q 2312.174 -1450.399 2313.520 -1449.701 Q 2314.866 -1449.002 2315.782 -1448.314 Q 2316.699 -1447.625 2316.989 -1447.196 Q 2317.279 -1446.767 2317.354 -1446.401 Q 2317.428 -1446.035 2317.495 -1445.755 Q 2317.562 -1445.474 2317.620 -1445.375 Q 2317.678 -1445.277 2317.758 -1445.190 Q 2317.839 -1445.103 2317.942 -1445.051 Q 2318.045 -1444.999 2318.533 -1444.631 Q 2319.021 -1444.264 2319.578 -1443.555 Q 2320.134 -1442.846 2320.447 -1442.260 Q 2320.760 -1441.674 2320.836 -1441.201 Q 2320.911 -1440.727 2320.827 -1440.201 Q 2320.743 -1439.674 2320.627 -1439.295 Q 2320.512 -1438.916 2320.444 -1438.451 L 2320.897 -1437.216 "/>
    <path id="STROKE_c8bbe43a-bcf6-44aa-876a-eb66a4b86a9d" opacity="1.000" fill="none" stroke="#61daac" stroke-width="34.305" stroke-opacity="1.000" stroke-linecap="round" stroke-linejoin="round" d="M 2283.409 -1592.746 Q 2283.768 -1592.687 2284.400 -1592.423 Q 2285.033 -1592.159 2286.000 -1591.174 Q 2286.966 -1590.190 2287.953 -1588.875 Q 2288.061 -1588.687 2288.557 -1588.644 Q 2289.053 -1588.601 2289.366 -1588.645 Q 2289.680 -1588.689 2290.114 -1588.774 Q 2290.648 -1588.743 2291.701 -1588.141 Q 2292.755 -1587.539 2293.442 -1586.985 Q 2294.128 -1586.432 2294.439 -1586.087 Q 2294.750 -1585.742 2294.839 -1585.561 Q 2294.928 -1585.379 2294.913 -1585.276 Q 2294.898 -1585.173 2294.831 -1585.037 Q 2294.764 -1584.900 2294.441 -1584.820 Q 2294.119 -1584.740 2293.807 -1584.896 Q 2293.878 -1584.894 2294.198 -1584.524 Q 2294.516 -1584.153 2294.828 -1583.379 L 2294.678 -1583.170 "/>
    <path id="STROKE_81ce3d73-808a-4fc6-ac3f-17ea76a50470" opacity="1.000" fill="none" stroke="#61daac" stroke-width="28.916" stroke-opacity="1.000" stroke-linecap="round" stroke-linejoin="round" d="M 2012.387 -1625.407 Q 2012.427 -1625.377 2013.418 -1625.756 Q 2013.784 -1625.802 2016.995 -1624.062 Q 2017.079 -1623.976 2017.233 -1623.999 Q 2017.388 -1624.022 2017.635 -1624.144 Q 2017.882 -1624.266 2018.037 -1624.334 Q 2018.191 -1624.402 2018.373 -1624.484 Q 2018.556 -1624.566 2018.756 -1624.618 Q 2018.956 -1624.670 2020.114 -1624.439 Q 2021.271 -1624.207 2021.974 -1623.951 Q 2022.677 -1623.696 2023.142 -1623.440 Q 2023.607 -1623.185 2023.920 -1622.885 Q 2024.233 -1622.584 2024.291 -1622.464 Q 2024.349 -1622.344 2024.360 -1622.214 Q 2024.371 -1622.084 2024.374 -1621.703 Q 2024.377 -1621.323 2024.385 -1621.088 Q 2024.393 -1620.854 2024.428 -1620.741 Q 2024.464 -1620.628 2024.621 -1620.509 Q 2025.200 -1619.995 2026.628 -1617.356 "/>
    <path id="STROKE_7a7c5b67-9c63-4e73-b914-65acb9004529" opacity="1.000" fill="none" stroke="#61daac" stroke-width="28.259" stroke-opacity="1.000" stroke-linecap="round" stroke-linejoin="round" d="M 2082.305 -1656.208 Q 2083.238 -1655.769 2084.308 -1654.871 Q 2085.377 -1653.974 2086.344 -1653.071 Q 2087.311 -1652.167 2087.931 -1651.515 Q 2088.551 -1650.863 2088.899 -1650.437 Q 2089.247 -1650.012 2089.368 -1649.768 Q 2089.489 -1649.523 2089.635 -1649.223 Q 2089.782 -1648.922 2090.109 -1648.559 Q 2090.436 -1648.197 2090.708 -1648.059 Q 2090.980 -1647.921 2091.126 -1647.882 Q 2091.272 -1647.844 2091.521 -1647.857 Q 2091.770 -1647.870 2092.345 -1647.718 Q 2092.921 -1647.567 2093.334 -1647.450 Q 2093.748 -1647.333 2095.339 -1646.687 Q 2096.929 -1646.041 2097.571 -1645.712 Q 2098.212 -1645.383 2098.344 -1645.300 Q 2098.476 -1645.217 2098.678 -1645.139 Q 2098.881 -1645.061 2099.190 -1645.092 Q 2099.499 -1645.122 2100.046 -1645.263 Q 2100.592 -1645.404 2101.122 -1645.553 Q 2101.651 -1645.703 2102.165 -1645.768 Q 2102.678 -1645.832 2103.807 -1645.769 Q 2104.936 -1645.706 2109.500 -1645.199 "/>
    <path id="STROKE_2c4005eb-6614-4627-b8c1-84401f7ba4b5" opacity="1.000" fill="none" stroke="#61daac" stroke-width="32.533" stroke-opacity="1.000" stroke-linecap="round" stroke-linejoin="round" d="M 2174.761 -1675.390 Q 2175.424 -1675.573 2175.693 -1675.494 Q 2175.962 -1675.416 2176.235 -1675.196 Q 2176.508 -1674.977 2176.668 -1674.793 Q 2176.828 -1674.609 2176.847 -1674.530 Q 2176.865 -1674.452 2176.832 -1674.439 Q 2176.799 -1674.426 2176.753 -1674.484 Q 2176.706 -1674.541 2176.714 -1674.842 Q 2176.723 -1675.143 2176.810 -1675.451 Q 2176.898 -1675.759 2177.010 -1675.975 Q 2177.121 -1676.191 2177.227 -1676.283 Q 2177.332 -1676.376 2177.691 -1676.444 Q 2178.049 -1676.513 2178.627 -1676.388 Q 2179.205 -1676.264 2179.705 -1676.099 Q 2180.206 -1675.934 2180.403 -1675.814 Q 2180.600 -1675.694 2180.683 -1675.625 Q 2180.767 -1675.557 2180.598 -1675.713 Q 2180.429 -1675.868 2180.292 -1676.057 Q 2180.155 -1676.247 2179.774 -1677.134 Q 2179.393 -1678.022 2179.042 -1680.104 Q 2179.098 -1680.324 2179.685 -1681.215 "/>
    <path id="STROKE_23d241ff-009e-4093-a5cd-907fa5cd6810" opacity="1.000" fill="none" stroke="#e75e5a" stroke-width="35.994" stroke-opacity="1.000" stroke-linecap="round" stroke-linejoin="round" d="M 2399.111 -1364.697 Q 2399.887 -1365.521 2400.117 -1365.695 Q 2400.348 -1365.869 2400.758 -1365.934 Q 2401.168 -1365.998 2401.450 -1365.933 Q 2401.732 -1365.869 2402.165 -1365.558 Q 2402.597 -1365.248 2402.687 -1365.084 Q 2402.776 -1364.921 2402.759 -1364.675 Q 2402.742 -1364.429 2402.400 -1364.315 Q 2402.058 -1364.202 2401.718 -1364.100 Q 2401.377 -1364.000 2401.010 -1363.954 Q 2400.644 -1363.908 2400.097 -1363.891 Q 2399.550 -1363.873 2399.420 -1363.751 Q 2399.289 -1363.629 2399.231 -1363.567 Q 2399.174 -1363.504 2398.997 -1363.213 Q 2398.820 -1362.922 2398.626 -1362.592 Q 2398.431 -1362.262 2397.927 -1361.660 Q 2397.424 -1361.057 2396.676 -1360.660 Q 2395.929 -1360.263 2394.962 -1359.931 Q 2393.995 -1359.598 2393.211 -1359.268 "/>
    <path id="STROKE_074ab78b-f7cd-4b41-bdd6-b37754112ee8" opacity="1.000" fill="none" stroke="#e75e5a" stroke-width="34.992" stroke-opacity="1.000" stroke-linecap="round" stroke-linejoin="round" d="M 2385.580 -1480.612 Q 2389.706 -1481.856 2390.184 -1482.012 Q 2390.662 -1482.169 2392.409 -1482.471 Q 2394.156 -1482.774 2396.570 -1482.857 Q 2398.985 -1482.940 2400.578 -1482.868 Q 2402.171 -1482.796 2403.302 -1482.593 Q 2404.433 -1482.390 2404.848 -1482.506 Q 2405.264 -1482.623 2406.297 -1482.767 Q 2407.331 -1482.911 2408.253 -1483.075 Q 2409.176 -1483.239 2409.308 -1483.266 Q 2409.439 -1483.292 2409.858 -1483.296 Q 2410.276 -1483.299 2411.717 -1483.202 Q 2413.159 -1483.105 2414.639 -1482.808 "/>
    <path id="STROKE_467fc04e-640c-4705-99d4-94f7456df9ac" opacity="1.000" fill="none" stroke="#e75e5a" stroke-width="35.336" stroke-opacity="1.000" stroke-linecap="round" stroke-linejoin="round" d="M 2395.030 -1628.883 L 2395.845 -1628.576 Q 2396.170 -1628.491 2397.431 -1627.608 Q 2398.693 -1626.725 2400.027 -1625.671 Q 2401.361 -1624.616 2402.348 -1623.878 Q 2403.334 -1623.139 2403.683 -1622.685 Q 2404.535 -1621.949 2405.436 -1621.388 Q 2406.336 -1620.827 2408.052 -1620.263 Q 2408.564 -1620.145 2410.233 -1619.340 Q 2411.903 -1618.536 2417.034 -1615.435 "/>
    <path id="STROKE_347521e0-9a31-4b9b-8064-59ab57a55271" opacity="1.000" fill="none" stroke="#fac141" stroke-width="71.208" stroke-opacity="1.000" stroke-linecap="round" stroke-linejoin="round" d="M 574.864 -97.751 Q 576.967 -97.586 618.053 -97.070 Q 659.139 -96.554 682.488 -96.587 Q 705.837 -96.619 737.949 -97.667 Q 770.060 -98.715 796.368 -99.783 Q 822.676 -100.851 863.686 -102.250 Q 904.696 -103.649 965.110 -104.457 Q 1025.524 -105.265 1055.371 -105.474 Q 1085.218 -105.683 1099.879 -105.802 Q 1114.540 -105.921 1150.398 -106.448 Q 1186.256 -106.976 1218.655 -107.772 Q 1251.053 -108.568 1287.232 -109.683 Q 1323.411 -110.798 1353.909 -111.965 Q 1384.406 -113.133 1398.003 -113.693 Q 1411.599 -114.254 1491.906 -118.078 Q 1572.212 -121.901 1614.082 -123.523 Q 1655.951 -125.146 1674.549 -125.659 Q 1693.146 -126.171 1704.339 -126.460 Q 1715.531 -126.748 1768.248 -127.281 Q 1820.965 -127.813 1885.203 -127.407 Q 1949.441 -127.000 1980.132 -126.655 Q 2010.822 -126.310 2055.732 -125.616 Q 2100.641 -124.923 2108.757 -124.729 Q 2116.874 -124.536 2155.699 -123.261 Q 2194.525 -121.986 2228.184 -119.986 Q 2261.843 -117.986 2295.007 -115.676 Q 2328.171 -113.366 2368.178 -110.276 Q 2408.184 -107.186 2427.187 -106.012 Q 2446.190 -104.838 2463.286 -103.313 "/>
    <path id="STROKE_87f664d0-b5b2-41ee-8e53-2618d0cc6fda" opacity="1.000" fill="none" stroke="#fac141" stroke-width="38.195" stroke-opacity="1.000" stroke-linecap="round" stroke-linejoin="round" d="M 1079.193 -1405.938 L 1070.478 -1391.586 Q 1065.082 -1379.787 1048.191 -1342.288 Q 1031.300 -1304.790 1022.367 -1282.832 Q 1013.434 -1260.875 1002.453 -1232.327 Q 991.471 -1203.778 983.774 -1183.521 Q 976.077 -1163.263 967.351 -1140.330 Q 958.626 -1117.398 950.742 -1096.724 Q 942.858 -1076.049 937.452 -1061.837 Q 932.046 -1047.624 921.660 -1020.119 Q 911.273 -992.613 905.394 -977.088 Q 899.515 -961.562 887.125 -929.091 Q 874.735 -896.620 857.708 -852.638 Q 840.682 -808.657 824.609 -766.817 Q 808.537 -724.977 791.011 -677.498 Q 773.485 -630.019 766.409 -609.527 Q 759.332 -589.035 748.664 -556.221 Q 737.995 -523.407 717.161 -453.726 Q 696.328 -384.045 681.682 -333.152 Q 667.037 -282.259 662.926 -267.905 Q 658.815 -253.550 655.066 -240.400 Q 651.318 -227.249 627.663 -146.672 Q 604.009 -66.095 587.336 -10.347 Q 570.663 45.400 559.550 81.804 Q 548.437 118.209 536.606 155.552 Q 524.775 192.895 512.050 232.097 Q 499.326 271.299 479.700 331.161 Q 460.075 391.024 445.223 435.617 Q 430.372 480.209 419.749 511.588 Q 409.127 542.966 396.953 577.810 Q 384.780 612.653 367.321 657.755 Q 349.863 702.856 340.244 725.610 Q 330.624 748.364 322.475 767.021 Q 314.326 785.678 306.269 803.672 Q 298.212 821.666 292.347 834.687 Q 286.482 847.709 276.476 869.920 Q 266.470 892.130 257.439 912.899 Q 248.407 933.667 231.952 975.742 Q 215.496 1017.818 210.432 1032.182 Q 205.369 1046.546 201.825 1057.246 L 197.680 1070.562 "/>
    <path id="STROKE_cde16356-15a3-4200-8d24-1e747a94fb41" opacity="1.000" fill="none" stroke="#fac141" stroke-width="95.483" stroke-opacity="1.000" stroke-linecap="round" stroke-linejoin="round" d="M 2472.290 -1648.751 Q 2474.222 -1644.774 2475.582 -1642.360 Q 2476.942 -1639.947 2478.061 -1637.848 Q 2479.180 -1635.748 2481.060 -1631.819 Q 2482.938 -1627.891 2484.718 -1623.930 Q 2486.497 -1619.970 2490.006 -1611.379 Q 2493.515 -1602.789 2497.178 -1592.073 Q 2500.841 -1581.356 2507.354 -1552.671 Q 2513.868 -1523.987 2516.485 -1506.074 Q 2519.101 -1488.161 2520.507 -1477.273 Q 2521.913 -1466.385 2525.577 -1423.333 Q 2529.240 -1380.281 2531.442 -1341.072 Q 2533.643 -1301.863 2534.423 -1280.446 Q 2535.204 -1259.029 2535.190 -1196.251 Q 2535.176 -1133.474 2534.031 -1106.988 Q 2532.885 -1080.502 2531.876 -1066.181 Q 2530.866 -1051.860 2529.257 -1033.999 Q 2527.647 -1016.139 2525.758 -997.038 Q 2523.869 -977.937 2521.883 -962.379 Q 2519.898 -946.822 2518.754 -939.119 Q 2517.609 -931.417 2516.012 -918.681 Q 2514.416 -905.945 2513.865 -903.578 Q 2513.622 -903.237 2514.172 -910.708 Q 2514.722 -918.178 2515.572 -932.779 Q 2516.422 -947.380 2516.829 -956.865 Q 2517.237 -966.349 2518.119 -991.978 Q 2519.002 -1017.607 2519.097 -1036.310 Q 2519.192 -1055.013 2518.769 -1074.415 Q 2518.344 -1093.816 2516.452 -1127.061 Q 2514.560 -1160.305 2512.616 -1187.784 Q 2510.672 -1215.262 2508.854 -1241.079 Q 2507.037 -1266.896 2506.013 -1282.083 Q 2504.988 -1297.271 2503.304 -1327.779 Q 2501.620 -1358.286 2500.907 -1375.983 Q 2500.194 -1393.680 2499.122 -1421.078 Q 2498.050 -1448.477 2497.525 -1470.466 Q 2497.001 -1492.454 2496.890 -1510.592 Q 2496.778 -1528.729 2496.879 -1541.401 Q 2496.979 -1554.073 2498.237 -1582.259 Q 2499.494 -1610.445 2501.186 -1628.560 Q 2502.878 -1646.676 2505.231 -1664.446 Q 2507.583 -1682.217 2509.840 -1694.953 Q 2512.096 -1707.689 2512.986 -1711.933 Q 2513.877 -1716.176 2514.494 -1718.410 Q 2515.112 -1720.644 2517.896 -1732.376 "/>
    <path id="STROKE_fbfa4efc-b73f-4827-87ac-cad295047e10" opacity="1.000" fill="none" stroke="#fac141" stroke-width="17.856" stroke-opacity="1.000" stroke-linecap="round" stroke-linejoin="round" d="M 2460.701 -822.813 Q 2463.404 -823.864 2468.955 -825.577 Q 2474.506 -827.291 2479.210 -828.938 "/>
    <path id="STROKE_bbcf01f4-5c8c-4f20-a3a8-8db5d76d255f" opacity="1.000" fill="none" stroke="#fac141" stroke-width="32.714" stroke-opacity="1.000" stroke-linecap="round" stroke-linejoin="round" d="M 2499.053 -837.688 L 2485.841 -839.447 Q 2482.748 -840.174 2466.649 -841.822 Q 2450.550 -843.470 2421.955 -846.438 Q 2393.359 -849.406 2377.102 -851.223 Q 2360.845 -853.040 2351.506 -854.191 Q 2342.168 -855.342 2294.297 -861.846 Q 2246.426 -868.349 2204.931 -875.401 Q 2163.436 -882.452 2143.892 -886.362 Q 2124.349 -890.272 2107.019 -894.061 Q 2089.690 -897.850 2065.452 -903.589 Q 2041.214 -909.328 1982.502 -925.058 Q 1923.789 -940.787 1863.442 -959.218 Q 1803.095 -977.648 1772.634 -987.444 Q 1742.173 -997.239 1727.316 -1002.081 Q 1712.459 -1006.923 1685.952 -1015.614 Q 1659.445 -1024.304 1639.737 -1030.810 Q 1620.030 -1037.316 1597.814 -1044.845 Q 1575.599 -1052.374 1533.005 -1067.698 Q 1490.411 -1083.022 1469.382 -1091.302 Q 1448.353 -1099.581 1424.032 -1110.243 Q 1399.711 -1120.905 1368.682 -1136.975 Q 1337.653 -1153.046 1311.599 -1168.746 Q 1285.544 -1184.447 1268.987 -1195.595 Q 1252.430 -1206.742 1244.772 -1212.312 Q 1237.113 -1217.882 1224.828 -1227.125 Q 1212.543 -1236.369 1195.776 -1250.380 Q 1179.009 -1264.391 1160.958 -1281.237 Q 1142.907 -1298.083 1133.362 -1307.522 Q 1123.816 -1316.962 1114.634 -1326.837 Q 1105.452 -1336.712 1096.521 -1346.364 Q 1087.591 -1356.015 1080.513 -1363.960 Q 1073.435 -1371.906 1070.808 -1375.037 Q 1068.181 -1378.168 1054.515 -1392.626 "/>
    <path id="STROKE_87591dd8-7318-4600-9f6a-b50d97dd6e11" opacity="1.000" fill="none" stroke="#fac141" stroke-width="23.748" stroke-opacity="1.000" stroke-linecap="round" stroke-linejoin="round" d="M 2547.243 -1826.876 Q 2541.899 -1828.026 2537.569 -1828.855 Q 2533.239 -1829.685 2518.999 -1831.649 Q 2504.760 -1833.614 2483.723 -1835.896 Q 2462.686 -1838.177 2428.396 -1841.088 Q 2394.106 -1843.998 2370.812 -1845.571 Q 2347.517 -1847.144 2312.850 -1848.940 Q 2278.183 -1850.736 2234.262 -1852.542 Q 2190.340 -1854.347 2159.407 -1855.709 Q 2128.474 -1857.071 2103.264 -1858.183 Q 2078.053 -1859.295 2035.636 -1860.577 Q 1993.220 -1861.858 1971.396 -1862.035 Q 1949.573 -1862.213 1918.343 -1861.513 Q 1887.113 -1860.812 1867.103 -1859.657 Q 1847.094 -1858.502 1804.632 -1853.893 Q 1762.171 -1849.283 1714.285 -1840.526 Q 1666.400 -1831.769 1621.802 -1820.315 Q 1577.203 -1808.861 1538.643 -1796.505 Q 1500.082 -1784.150 1462.673 -1769.911 Q 1425.264 -1755.673 1358.955 -1725.595 Q 1292.647 -1695.517 1258.604 -1677.575 Q 1224.560 -1659.634 1204.340 -1647.368 Q 1184.120 -1635.102 1165.844 -1622.427 Q 1147.568 -1609.752 1135.181 -1599.971 Q 1122.793 -1590.190 1106.062 -1574.389 Q 1089.331 -1558.588 1076.204 -1543.285 Q 1063.078 -1527.982 1055.689 -1517.878 Q 1048.301 -1507.774 1042.709 -1499.004 Q 1037.117 -1490.233 1029.737 -1476.296 Q 1022.357 -1462.359 1018.763 -1454.607 Q 1015.169 -1446.855 1011.878 -1438.985 Q 1008.587 -1431.115 1006.363 -1425.477 Q 1004.139 -1419.839 995.986 -1397.938 "/>
    <path id="STROKE_3d6030e8-7f2c-4165-b0b3-3a9fb5f7a130" opacity="1.000" fill="none" stroke="#fac141" stroke-width="18.933" stroke-opacity="1.000" stroke-linecap="round" stroke-linejoin="round" d="M 229.779 1021.749 L 233.515 1019.053 Q 235.316 1017.634 238.371 1015.475 Q 241.427 1013.316 247.050 1009.491 Q 252.674 1005.665 263.631 998.514 Q 274.589 991.362 288.946 982.303 Q 303.303 973.245 332.405 955.806 Q 361.508 938.368 376.950 929.441 Q 392.392 920.515 400.255 915.989 Q 408.117 911.464 428.693 899.877 Q 449.269 888.289 464.778 879.779 Q 480.288 871.270 488.919 866.579 Q 497.550 861.888 540.726 839.586 Q 583.901 817.285 607.802 805.761 Q 631.702 794.237 659.373 781.671 Q 687.044 769.105 700.797 763.128 Q 714.549 757.151 738.134 747.204 Q 761.718 737.258 786.821 727.070 Q 811.923 716.881 874.839 693.871 Q 937.755 670.862 970.537 660.597 Q 1003.320 650.333 1018.166 646.265 Q 1033.012 642.197 1040.738 640.201 Q 1048.464 638.205 1078.572 631.726 Q 1108.680 625.248 1134.768 621.484 Q 1160.856 617.719 1179.519 616.131 Q 1198.181 614.542 1207.771 614.081 Q 1217.362 613.620 1241.152 613.480 Q 1264.941 613.340 1288.878 614.724 Q 1312.815 616.109 1344.928 620.318 Q 1377.041 624.528 1406.036 630.637 Q 1435.031 636.746 1466.494 645.674 Q 1497.957 654.601 1514.815 660.632 Q 1531.674 666.663 1556.459 676.068 Q 1581.244 685.473 1601.823 693.753 Q 1622.402 702.033 1640.672 709.781 L 1656.559 716.749 "/>
    <path id="STROKE_5d0ed8d7-7721-4455-a5c0-dcc284718690" opacity="1.000" fill="none" stroke="#fac141" stroke-width="44.977" stroke-opacity="1.000" stroke-linecap="round" stroke-linejoin="round" d="M 1662.645 601.312 Q 1661.846 606.718 1659.704 625.350 Q 1657.563 643.982 1653.979 673.399 Q 1650.395 702.817 1647.488 728.126 Q 1644.582 753.435 1641.602 781.312 Q 1638.621 809.189 1637.849 816.704 Q 1637.076 824.220 1634.723 848.525 Q 1632.369 872.830 1629.685 910.017 Q 1627.001 947.203 1624.779 992.984 Q 1622.556 1038.765 1620.546 1102.411 Q 1618.536 1166.057 1617.122 1196.444 Q 1615.709 1226.831 1614.796 1241.296 Q 1613.883 1255.761 1610.227 1294.570 Q 1606.571 1333.379 1602.388 1377.072 Q 1598.205 1420.764 1597.446 1428.062 "/>
    <path id="STROKE_7d11402b-d3d5-4fe3-974a-e462b335f28a" opacity="1.000" fill="none" stroke="#fac141" stroke-width="71.726" stroke-opacity="1.000" stroke-linecap="round" stroke-linejoin="round" d="M 179.205 1090.937 L 183.941 1097.339 Q 184.906 1098.825 201.611 1119.513 Q 218.316 1140.201 234.258 1157.681 Q 250.199 1175.161 260.114 1184.672 Q 270.029 1194.184 282.828 1205.190 Q 295.627 1216.196 324.568 1236.158 Q 353.509 1256.119 376.661 1268.917 Q 399.813 1281.716 431.586 1295.911 Q 463.358 1310.105 480.801 1316.858 Q 498.244 1323.612 520.609 1331.566 Q 542.973 1339.521 599.809 1358.408 Q 656.646 1377.295 712.214 1395.140 Q 767.783 1412.985 794.726 1421.446 Q 821.669 1429.907 833.620 1433.602 Q 845.572 1437.297 857.252 1440.866 Q 868.932 1444.435 914.062 1458.235 Q 959.192 1472.036 1016.400 1488.411 Q 1073.607 1504.785 1083.830 1507.331 Q 1094.053 1509.876 1132.372 1517.596 Q 1170.692 1525.316 1197.340 1528.784 Q 1223.989 1532.251 1251.387 1533.871 Q 1278.786 1535.490 1298.405 1535.565 Q 1318.025 1535.640 1340.988 1534.579 Q 1363.950 1533.517 1377.608 1532.400 Q 1391.266 1531.282 1405.456 1529.829 Q 1419.646 1528.376 1451.118 1523.890 Q 1482.590 1519.405 1504.963 1515.389 Q 1527.336 1511.372 1543.454 1508.125 Q 1559.571 1504.878 1573.569 1501.777 Q 1587.566 1498.677 1599.427 1495.796 Q 1611.289 1492.915 1625.660 1488.681 Q 1640.031 1484.447 1647.462 1481.841 Q 1654.894 1479.234 1658.723 1477.640 Q 1662.553 1476.047 1664.375 1475.007 Q 1666.197 1473.967 1683.605 1464.874 "/>
    <path id="STROKE_a3ebad26-75f7-4b7f-9ff9-9486512c84b1" opacity="1.000" fill="none" stroke="#fac141" stroke-width="93.247" stroke-opacity="1.000" stroke-linecap="round" stroke-linejoin="round" d="M 2622.052 -555.403 Q 2622.083 -554.603 2625.116 -540.307 Q 2625.457 -537.929 2627.682 -519.792 Q 2629.906 -501.656 2630.659 -483.296 Q 2631.412 -464.935 2630.463 -439.440 Q 2629.515 -413.945 2627.050 -389.507 Q 2624.586 -365.069 2621.772 -343.732 Q 2618.959 -322.394 2616.104 -300.605 Q 2613.250 -278.816 2611.258 -262.021 Q 2609.265 -245.227 2607.895 -232.805 Q 2606.524 -220.384 2605.882 -213.394 Q 2605.239 -206.404 2602.317 -175.857 Q 2599.395 -145.310 2597.826 -129.808 Q 2596.258 -114.306 2592.413 -80.918 Q 2588.568 -47.529 2582.699 -10.892 Q 2576.831 25.745 2572.642 48.976 Q 2568.453 72.206 2566.433 83.369 Q 2564.413 94.531 2561.609 110.041 Q 2558.805 125.551 2555.271 146.006 Q 2551.736 166.461 2548.939 184.245 Q 2546.143 202.029 2543.513 222.785 Q 2540.883 243.540 2540.171 252.769 Q 2539.460 261.998 2538.499 278.995 Q 2537.537 295.993 2536.572 306.358 Q 2535.606 316.724 2533.013 330.740 Q 2530.420 344.756 2528.715 356.024 "/>
  </g>
</svg>